{"title":"Scissor Sisters Live In Brighton (2004)Dvd Rip [Divx]","uid":5875371,"size":1000764874,"categoryP":"video","categoryS":"music_videos","magnet":"?xt=urn:btih:e29a5d40ade90a581a0d73dcfc24b87994b173c9&amp;dn=Scissor+Sisters+Live+In+Brighton+%282004%29Dvd+Rip+%5BDivx%5D&amp;tr=udp%3A%2F%2Ftracker.openbittorrent.com%3A80&amp;tr=udp%3A%2F%2Fopen.demonii.com%3A1337&amp;tr=udp%3A%2F%2Ftracker.coppersurfer.tk%3A6969&amp;tr=udp%3A%2F%2Fexodus.desync.com%3A6969","seeders":1,"leechers":0,"uploader":"seanprince2","files":-1,"time":1286617751,"description":"Scissor Sisters Live In Brighton\n\nWe are Scissor Sisters And So Are You (2004)Dvd Rip [Divx]\n\nThis is entertaining, superbly filmed and proves what a fantastic band the Scissor Sisters really are. I could not fault anything about this DVD. The Scissor Sisters prove just how good a band they are live.\n\nComplete name sslib.divx\nFormat : AVI\nFormat/Info : Audio Video Interleave\nFile size : 954 MiB\nDuration : 1h 15mn\nOverall bit rate : 1 758 Kbps\n\nVideo\nID : 0\nFormat : MPEG-4 Visual\nFormat settings, BVOP : Yes\nFormat settings, QPel : No\nFormat settings, GMC : No warppoints\nFormat settings, Matrix : Default (H.263)\nMuxing mode : Packed bitstream\nCodec ID : DX50\nCodec ID/Hint : DivX 5\nDuration : 1h 15mn\nBit rate : 1 300 Kbps\nWidth : 688 pixels\nHeight : 368 pixels\nDisplay aspect ratio : 1.870\nFrame rate : 25.000 fps\nResolution : 24 bits\nColorimetry : 4:2:0\nScan type : Progressive\nBits/(Pixel*Frame) : 0.205\nStream size : 706 MiB (74%)\nTitle : Video\nWriting library : DivX 6.8.2 (UTC 2008-05-17)\n\nAudio\nID : 1\nFormat : AC-3\nFormat/Info : Audio Coding 3\nCodec ID : 2000\nDuration : 1h 15mn\nBit rate mode : Constant\nBit rate : 448 Kbps\nChannel(s) : 6 channels\nChannel positions : Front: L C R, Surround: L R, LFE\nSampling rate : 48.0 KHz\nStream size : 243 MiB (25%)\nAlignment : Split accross interleaves\nInterleave, duration : 40 ms (1.00 video frame)\nInterleave, preload duration : 500 ms\nTitle : Audio\n\nPlay List\n\n1. Take Your Mama 2. Better Luck Next Time 3. Tits On The Radio 4. The Skins 5. On Broadway 6. Magnifique 7. Rock My Spot 8. Mary 9. Comfortably Numb 10. O.P.B Dance 11. Filthy/Gorgeous 12. Return To Oz 13. It Can't Come Quickly Enough 14. Laura 15. Music Is The Victim","torrent":{"xt":"urn:btih:e29a5d40ade90a581a0d73dcfc24b87994b173c9","amp;dn":"Scissor+Sisters+Live+In+Brighton+%282004%29Dvd+Rip+%5BDivx%5D","amp;tr":["udp%3A%2F%2Ftracker.openbittorrent.com%3A80","udp%3A%2F%2Fopen.demonii.com%3A1337","udp%3A%2F%2Ftracker.coppersurfer.tk%3A6969","udp%3A%2F%2Fexodus.desync.com%3A6969"],"infoHash":"e29a5d40ade90a581a0d73dcfc24b87994b173c9","infoHashBuffer":{"type":"Buffer","data":[226,154,93,64,173,233,10,88,26,13,115,220,252,36,184,121,148,177,115,201]},"announce":[],"urlList":[]}}